<?xml version="1.0" standalone="no"?>
<!DOCTYPE svg PUBLIC "-//W3C//DTD SVG 20010904//EN"
 "http://www.w3.org/TR/2001/REC-SVG-20010904/DTD/svg10.dtd">
<svg version="1.0" xmlns="http://www.w3.org/2000/svg"
 width="256.000000pt" height="256.000000pt" viewBox="0 0 256.000000 256.000000"
 preserveAspectRatio="xMidYMid meet">
<metadata>
Created by potrace 1.13, written by Peter Selinger 2001-2015
</metadata>
<g transform="translate(0.000000,256.000000) scale(0.100000,-0.100000)"
fill="#000000" stroke="none">
<path d="M430 1741 l0 -131 -60 0 -60 0 0 75 0 75 -50 0 -50 0 0 -75 0 -75
-55 0 -55 0 0 -314 0 -313 -36 -69 c-34 -66 -36 -73 -32 -150 5 -93 30 -146
96 -206 83 -75 64 -73 742 -73 594 0 606 0 651 21 25 12 62 36 83 54 l37 33
42 -41 43 -42 399 0 c225 0 395 4 389 9 -5 4 -97 41 -204 81 -107 40 -201 78
-208 84 -7 7 -54 117 -106 246 l-94 235 -44 0 -43 0 -2 -230 -2 -230 -57 0
-58 0 3 56 c3 69 -11 124 -44 173 -22 33 -25 47 -25 134 l0 98 -130 48 c-72
27 -134 56 -139 65 -4 9 -39 118 -76 243 -75 248 -91 279 -168 321 -41 21 -53
22 -364 25 l-323 3 0 -130z m647 -11 c26 -16 36 -32 54 -92 11 -40 38 -128 59
-195 20 -68 34 -123 30 -123 -6 0 -352 128 -612 226 l-68 26 0 89 0 89 253 0
c232 0 255 -2 284 -20z m433 -770 c101 -57 137 -170 86 -274 -17 -35 -41 -63
-68 -82 l-41 -29 -612 -3 -611 -2 -45 23 c-161 85 -137 329 38 384 28 9 194
11 623 10 l585 -2 45 -25z"/>
<path d="M244 911 c-74 -45 -99 -119 -66 -194 68 -153 294 -109 294 58 0 118
-130 196 -228 136z"/>
<path d="M610 912 c-106 -53 -108 -207 -3 -269 73 -42 152 -23 207 51 29 38
29 124 0 163 -52 70 -132 92 -204 55z"/>
<path d="M970 908 c-55 -38 -75 -73 -75 -133 0 -83 54 -143 138 -152 127 -15
214 134 141 241 -45 66 -141 87 -204 44z"/>
<path d="M1330 907 c-100 -67 -97 -205 6 -265 142 -83 297 94 198 226 -50 65
-141 83 -204 39z"/>
</g>
</svg>
