<?xml version="1.0" standalone="no"?>
<!DOCTYPE svg PUBLIC "-//W3C//DTD SVG 20010904//EN"
 "http://www.w3.org/TR/2001/REC-SVG-20010904/DTD/svg10.dtd">
<svg version="1.0" xmlns="http://www.w3.org/2000/svg"
 width="256.000000pt" height="256.000000pt" viewBox="0 0 256.000000 256.000000"
 preserveAspectRatio="xMidYMid meet">
<metadata>
Created by potrace 1.13, written by Peter Selinger 2001-2015
</metadata>
<g transform="translate(0.000000,256.000000) scale(0.100000,-0.100000)"
fill="#000000" stroke="none">
<path d="M1159 2332 c-234 -122 -150 -471 114 -472 102 0 180 48 224 138 107
218 -124 446 -338 334z"/>
<path d="M254 2050 c-12 -4 -31 -21 -43 -36 -18 -23 -21 -40 -21 -125 0 -55
-2 -99 -5 -99 -2 0 -30 18 -61 40 -32 22 -61 40 -65 40 -3 0 -14 -11 -23 -24
-15 -24 -15 -25 66 -83 80 -58 81 -58 84 -107 4 -63 29 -97 83 -114 37 -13 45
-12 81 6 64 31 68 8 10 -54 -28 -29 -55 -65 -60 -79 -6 -15 -10 -145 -10 -307
l0 -280 -80 -242 c-44 -133 -80 -252 -80 -264 0 -57 56 -112 115 -112 38 0 83
26 99 58 7 15 51 140 97 277 l83 250 0 137 c1 76 3 138 6 138 3 0 63 -57 133
-128 l127 -127 0 -258 c0 -284 3 -303 60 -332 37 -19 73 -19 110 0 58 30 60
44 60 376 l0 303 -162 163 -162 163 36 37 37 36 115 -78 c88 -60 116 -84 116
-100 0 -62 89 -126 144 -105 22 8 44 -5 184 -101 l160 -111 -136 -196 c-74
-108 -162 -236 -195 -284 -38 -54 -58 -92 -54 -102 6 -15 60 -16 559 -14 500
3 553 5 556 19 2 13 -289 447 -490 729 -65 91 -72 90 -148 -18 -28 -39 -53
-72 -56 -72 -3 0 -71 45 -150 99 l-146 100 2 317 1 317 -175 176 -176 176
-302 2 c-167 1 -313 -2 -324 -7z m325 -336 c-114 -114 -117 -116 -140 -101
-23 15 -24 20 -21 116 l3 101 137 0 137 0 -116 -116z m419 -410 l-3 -75 -89
62 -88 61 88 90 89 89 3 -76 c2 -41 2 -109 0 -151z"/>
<path d="M2016 785 c-25 -36 -46 -68 -46 -70 0 -3 65 -98 144 -212 162 -236
170 -248 163 -274 -5 -18 2 -19 109 -19 91 0 116 3 120 15 7 18 -405 619 -428
623 -10 2 -33 -21 -62 -63z"/>
</g>
</svg>
