<?xml version="1.0" standalone="no"?>
<!DOCTYPE svg PUBLIC "-//W3C//DTD SVG 20010904//EN"
 "http://www.w3.org/TR/2001/REC-SVG-20010904/DTD/svg10.dtd">
<svg version="1.0" xmlns="http://www.w3.org/2000/svg"
 width="512.000000pt" height="512.000000pt" viewBox="0 0 512.000000 512.000000"
 preserveAspectRatio="xMidYMid meet">
<metadata>
Created by potrace 1.13, written by Peter Selinger 2001-2015
</metadata>
<g transform="translate(0.000000,512.000000) scale(0.100000,-0.100000)"
fill="#000000" stroke="none">
<path d="M3105 4452 c-1010 -454 -1819 -1273 -2316 -2344 -188 -405 -283 -689
-363 -1088 -43 -215 -43 -227 1 -374 35 -119 41 -130 66 -137 32 -9 427 -35
737 -50 355 -16 1748 -23 2100 -10 360 13 619 30 641 41 11 7 18 39 28 127
l12 118 -55 136 c-220 540 -326 1034 -326 1519 0 532 125 967 396 1375 168
252 450 533 708 704 l69 46 -33 3 c-38 4 -100 -35 -290 -182 -124 -96 -369
-337 -464 -456 -282 -354 -454 -743 -523 -1180 -25 -158 -24 -559 1 -745 48
-353 152 -762 289 -1138 l35 -97 -22 -6 c-12 -3 -46 -4 -76 -2 l-53 3 -45 130
c-189 560 -272 1043 -259 1510 14 504 134 907 381 1285 186 284 495 586 830
809 l99 66 -179 3 -179 2 -71 -30 c-54 -24 -82 -30 -119 -28 l-49 3 64 27 65
27 -299 0 -298 1 -120 -51 c-543 -228 -1002 -541 -1424 -970 -356 -363 -629
-750 -873 -1236 -203 -406 -399 -981 -487 -1425 l-17 -88 -31 0 c-63 0 -106
12 -106 29 0 27 68 317 111 476 53 196 146 473 221 660 84 211 268 581 382
769 492 812 1182 1414 2036 1776 69 29 127 55 129 56 2 2 -36 4 -85 4 -88 -1
-91 -1 -239 -68z m-155 -807 l-64 -65 -85 0 -85 0 64 65 64 65 85 0 85 0 -64
-65z m-226 -272 c-9 -16 -38 -58 -62 -95 l-45 -68 -98 0 c-55 0 -99 3 -99 6 0
4 30 47 66 95 l66 89 95 0 95 0 -18 -27z m-244 -420 c0 -5 -25 -69 -55 -143
l-55 -135 -120 -3 c-66 -1 -120 -1 -120 2 0 8 107 242 121 264 13 20 22 22
121 22 60 0 108 -3 108 -7z m-210 -651 c0 -4 -9 -57 -20 -117 -11 -61 -28
-175 -38 -255 l-18 -145 -142 -3 -142 -3 0 24 c0 47 58 346 91 470 l10 37 129
0 c72 0 130 -4 130 -8z m-100 -1282 l0 -341 -157 3 -158 3 2 324 c1 179 4 330
7 338 4 10 40 13 156 13 l150 0 0 -340z"/>
</g>
</svg>
